<mxfile host="app.diagrams.net" modified="2023-10-31T09:38:37.127Z" agent="Mozilla/5.0 (Windows NT 10.0; Win64; x64) AppleWebKit/537.36 (KHTML, like Gecko) Chrome/118.0.0.0 Safari/537.36" etag="K0ZDA0Zm-W3f-Wl1TX1K" version="22.0.8" type="github">
  <diagram name="Chat History" id="f_rxhetQorG0hHD9C17j">
    <mxGraphModel dx="1756" dy="1697" grid="1" gridSize="10" guides="1" tooltips="1" connect="1" arrows="1" fold="1" page="0" pageScale="1" pageWidth="850" pageHeight="1100" background="none" math="0" shadow="0">
      <root>
        <mxCell id="0" />
        <mxCell id="1" parent="0" />
        <mxCell id="uxHZfJqhnMFODpJpr4_Y-39" value="userManagement" style="swimlane;fontStyle=0;childLayout=stackLayout;horizontal=1;startSize=26;fillColor=none;horizontalStack=0;resizeParent=1;resizeParentMax=0;resizeLast=0;collapsible=1;marginBottom=0;whiteSpace=wrap;html=1;swimlaneLine=1;" parent="1" vertex="1">
          <mxGeometry x="-650" y="-850" width="240" height="208" as="geometry">
            <mxRectangle x="270" y="-360" width="100" height="30" as="alternateBounds" />
          </mxGeometry>
        </mxCell>
        <mxCell id="uxHZfJqhnMFODpJpr4_Y-40" value="+ ObjectId: string" style="text;strokeColor=none;fillColor=none;align=left;verticalAlign=top;spacingLeft=4;spacingRight=4;overflow=hidden;rotatable=0;points=[[0,0.5],[1,0.5]];portConstraint=eastwest;whiteSpace=wrap;html=1;swimlaneLine=1;" parent="uxHZfJqhnMFODpJpr4_Y-39" vertex="1">
          <mxGeometry y="26" width="240" height="26" as="geometry" />
        </mxCell>
        <mxCell id="uxHZfJqhnMFODpJpr4_Y-41" value="+ userName: email&amp;nbsp;(Primary Key)" style="text;strokeColor=none;fillColor=none;align=left;verticalAlign=top;spacingLeft=4;spacingRight=4;overflow=hidden;rotatable=0;points=[[0,0.5],[1,0.5]];portConstraint=eastwest;whiteSpace=wrap;html=1;swimlaneLine=1;" parent="uxHZfJqhnMFODpJpr4_Y-39" vertex="1">
          <mxGeometry y="52" width="240" height="26" as="geometry" />
        </mxCell>
        <mxCell id="uxHZfJqhnMFODpJpr4_Y-42" value="+ password: hash pwd" style="text;strokeColor=none;fillColor=none;align=left;verticalAlign=top;spacingLeft=4;spacingRight=4;overflow=hidden;rotatable=0;points=[[0,0.5],[1,0.5]];portConstraint=eastwest;whiteSpace=wrap;html=1;swimlaneLine=1;" parent="uxHZfJqhnMFODpJpr4_Y-39" vertex="1">
          <mxGeometry y="78" width="240" height="26" as="geometry" />
        </mxCell>
        <mxCell id="uxHZfJqhnMFODpJpr4_Y-43" value="+ firstName: string" style="text;strokeColor=none;fillColor=none;align=left;verticalAlign=top;spacingLeft=4;spacingRight=4;overflow=hidden;rotatable=0;points=[[0,0.5],[1,0.5]];portConstraint=eastwest;whiteSpace=wrap;html=1;swimlaneLine=1;" parent="uxHZfJqhnMFODpJpr4_Y-39" vertex="1">
          <mxGeometry y="104" width="240" height="26" as="geometry" />
        </mxCell>
        <mxCell id="uxHZfJqhnMFODpJpr4_Y-48" value="+ lastName: string" style="text;strokeColor=none;fillColor=none;align=left;verticalAlign=top;spacingLeft=4;spacingRight=4;overflow=hidden;rotatable=0;points=[[0,0.5],[1,0.5]];portConstraint=eastwest;whiteSpace=wrap;html=1;swimlaneLine=1;" parent="uxHZfJqhnMFODpJpr4_Y-39" vertex="1">
          <mxGeometry y="130" width="240" height="26" as="geometry" />
        </mxCell>
        <mxCell id="7p9TcKajQnI9MsIjtAsc-1" value="+ timestamp: time" style="text;strokeColor=none;fillColor=none;align=left;verticalAlign=top;spacingLeft=4;spacingRight=4;overflow=hidden;rotatable=0;points=[[0,0.5],[1,0.5]];portConstraint=eastwest;whiteSpace=wrap;html=1;swimlaneLine=1;" vertex="1" parent="uxHZfJqhnMFODpJpr4_Y-39">
          <mxGeometry y="156" width="240" height="26" as="geometry" />
        </mxCell>
        <mxCell id="7p9TcKajQnI9MsIjtAsc-2" value="+ email: email&amp;nbsp;" style="text;strokeColor=none;fillColor=none;align=left;verticalAlign=top;spacingLeft=4;spacingRight=4;overflow=hidden;rotatable=0;points=[[0,0.5],[1,0.5]];portConstraint=eastwest;whiteSpace=wrap;html=1;swimlaneLine=1;" vertex="1" parent="uxHZfJqhnMFODpJpr4_Y-39">
          <mxGeometry y="182" width="240" height="26" as="geometry" />
        </mxCell>
        <mxCell id="uxHZfJqhnMFODpJpr4_Y-49" value="chatConversation" style="swimlane;fontStyle=0;childLayout=stackLayout;horizontal=1;startSize=26;fillColor=none;horizontalStack=0;resizeParent=1;resizeParentMax=0;resizeLast=0;collapsible=1;marginBottom=0;whiteSpace=wrap;html=1;swimlaneLine=1;" parent="1" vertex="1">
          <mxGeometry x="-280" y="-830" width="240" height="156" as="geometry">
            <mxRectangle x="270" y="-360" width="100" height="30" as="alternateBounds" />
          </mxGeometry>
        </mxCell>
        <mxCell id="uxHZfJqhnMFODpJpr4_Y-50" value="+&amp;nbsp;ConversationID: string" style="text;strokeColor=none;fillColor=none;align=left;verticalAlign=top;spacingLeft=4;spacingRight=4;overflow=hidden;rotatable=0;points=[[0,0.5],[1,0.5]];portConstraint=eastwest;whiteSpace=wrap;html=1;swimlaneLine=1;" parent="uxHZfJqhnMFODpJpr4_Y-49" vertex="1">
          <mxGeometry y="26" width="240" height="26" as="geometry" />
        </mxCell>
        <mxCell id="uxHZfJqhnMFODpJpr4_Y-51" value="+ userName: email&amp;nbsp;(Primary Key)" style="text;strokeColor=none;fillColor=none;align=left;verticalAlign=top;spacingLeft=4;spacingRight=4;overflow=hidden;rotatable=0;points=[[0,0.5],[1,0.5]];portConstraint=eastwest;whiteSpace=wrap;html=1;swimlaneLine=1;" parent="uxHZfJqhnMFODpJpr4_Y-49" vertex="1">
          <mxGeometry y="52" width="240" height="26" as="geometry" />
        </mxCell>
        <mxCell id="uxHZfJqhnMFODpJpr4_Y-52" value="+ chatName: string" style="text;strokeColor=none;fillColor=none;align=left;verticalAlign=top;spacingLeft=4;spacingRight=4;overflow=hidden;rotatable=0;points=[[0,0.5],[1,0.5]];portConstraint=eastwest;whiteSpace=wrap;html=1;swimlaneLine=1;" parent="uxHZfJqhnMFODpJpr4_Y-49" vertex="1">
          <mxGeometry y="78" width="240" height="26" as="geometry" />
        </mxCell>
        <mxCell id="uxHZfJqhnMFODpJpr4_Y-53" value="+ creationDate: date" style="text;strokeColor=none;fillColor=none;align=left;verticalAlign=top;spacingLeft=4;spacingRight=4;overflow=hidden;rotatable=0;points=[[0,0.5],[1,0.5]];portConstraint=eastwest;whiteSpace=wrap;html=1;swimlaneLine=1;" parent="uxHZfJqhnMFODpJpr4_Y-49" vertex="1">
          <mxGeometry y="104" width="240" height="26" as="geometry" />
        </mxCell>
        <mxCell id="uxHZfJqhnMFODpJpr4_Y-55" value="+ isDeleted: boolean (Soft Delete)" style="text;strokeColor=none;fillColor=none;align=left;verticalAlign=top;spacingLeft=4;spacingRight=4;overflow=hidden;rotatable=0;points=[[0,0.5],[1,0.5]];portConstraint=eastwest;whiteSpace=wrap;html=1;swimlaneLine=1;" parent="uxHZfJqhnMFODpJpr4_Y-49" vertex="1">
          <mxGeometry y="130" width="240" height="26" as="geometry" />
        </mxCell>
        <mxCell id="7p9TcKajQnI9MsIjtAsc-10" value="chatMessage" style="swimlane;fontStyle=0;childLayout=stackLayout;horizontal=1;startSize=26;fillColor=none;horizontalStack=0;resizeParent=1;resizeParentMax=0;resizeLast=0;collapsible=1;marginBottom=0;whiteSpace=wrap;html=1;swimlaneLine=1;" vertex="1" parent="1">
          <mxGeometry x="90" y="-830" width="240" height="182" as="geometry">
            <mxRectangle x="270" y="-360" width="100" height="30" as="alternateBounds" />
          </mxGeometry>
        </mxCell>
        <mxCell id="7p9TcKajQnI9MsIjtAsc-16" value="+ ConversationID: string" style="text;strokeColor=none;fillColor=none;align=left;verticalAlign=top;spacingLeft=4;spacingRight=4;overflow=hidden;rotatable=0;points=[[0,0.5],[1,0.5]];portConstraint=eastwest;whiteSpace=wrap;html=1;swimlaneLine=1;" vertex="1" parent="7p9TcKajQnI9MsIjtAsc-10">
          <mxGeometry y="26" width="240" height="26" as="geometry" />
        </mxCell>
        <mxCell id="7p9TcKajQnI9MsIjtAsc-11" value="+ MessageID: string" style="text;strokeColor=none;fillColor=none;align=left;verticalAlign=top;spacingLeft=4;spacingRight=4;overflow=hidden;rotatable=0;points=[[0,0.5],[1,0.5]];portConstraint=eastwest;whiteSpace=wrap;html=1;swimlaneLine=1;" vertex="1" parent="7p9TcKajQnI9MsIjtAsc-10">
          <mxGeometry y="52" width="240" height="26" as="geometry" />
        </mxCell>
        <mxCell id="7p9TcKajQnI9MsIjtAsc-12" value="+ userName: email&amp;nbsp;(Primary Key)" style="text;strokeColor=none;fillColor=none;align=left;verticalAlign=top;spacingLeft=4;spacingRight=4;overflow=hidden;rotatable=0;points=[[0,0.5],[1,0.5]];portConstraint=eastwest;whiteSpace=wrap;html=1;swimlaneLine=1;" vertex="1" parent="7p9TcKajQnI9MsIjtAsc-10">
          <mxGeometry y="78" width="240" height="26" as="geometry" />
        </mxCell>
        <mxCell id="7p9TcKajQnI9MsIjtAsc-13" value="+ content: string (Input)" style="text;strokeColor=none;fillColor=none;align=left;verticalAlign=top;spacingLeft=4;spacingRight=4;overflow=hidden;rotatable=0;points=[[0,0.5],[1,0.5]];portConstraint=eastwest;whiteSpace=wrap;html=1;swimlaneLine=1;" vertex="1" parent="7p9TcKajQnI9MsIjtAsc-10">
          <mxGeometry y="104" width="240" height="26" as="geometry" />
        </mxCell>
        <mxCell id="7p9TcKajQnI9MsIjtAsc-14" value="+ timestamp: time" style="text;strokeColor=none;fillColor=none;align=left;verticalAlign=top;spacingLeft=4;spacingRight=4;overflow=hidden;rotatable=0;points=[[0,0.5],[1,0.5]];portConstraint=eastwest;whiteSpace=wrap;html=1;swimlaneLine=1;" vertex="1" parent="7p9TcKajQnI9MsIjtAsc-10">
          <mxGeometry y="130" width="240" height="26" as="geometry" />
        </mxCell>
        <mxCell id="7p9TcKajQnI9MsIjtAsc-15" value="+ messageType: string&amp;nbsp; (Agile / Non-agile)" style="text;strokeColor=none;fillColor=none;align=left;verticalAlign=top;spacingLeft=4;spacingRight=4;overflow=hidden;rotatable=0;points=[[0,0.5],[1,0.5]];portConstraint=eastwest;whiteSpace=wrap;html=1;swimlaneLine=1;" vertex="1" parent="7p9TcKajQnI9MsIjtAsc-10">
          <mxGeometry y="156" width="240" height="26" as="geometry" />
        </mxCell>
        <mxCell id="7p9TcKajQnI9MsIjtAsc-18" value="modelMessage" style="swimlane;fontStyle=0;childLayout=stackLayout;horizontal=1;startSize=26;fillColor=none;horizontalStack=0;resizeParent=1;resizeParentMax=0;resizeLast=0;collapsible=1;marginBottom=0;whiteSpace=wrap;html=1;swimlaneLine=1;" vertex="1" parent="1">
          <mxGeometry x="390" y="-830" width="240" height="164" as="geometry">
            <mxRectangle x="270" y="-360" width="100" height="30" as="alternateBounds" />
          </mxGeometry>
        </mxCell>
        <mxCell id="7p9TcKajQnI9MsIjtAsc-19" value="+ ConversationID: string" style="text;strokeColor=none;fillColor=none;align=left;verticalAlign=top;spacingLeft=4;spacingRight=4;overflow=hidden;rotatable=0;points=[[0,0.5],[1,0.5]];portConstraint=eastwest;whiteSpace=wrap;html=1;swimlaneLine=1;" vertex="1" parent="7p9TcKajQnI9MsIjtAsc-18">
          <mxGeometry y="26" width="240" height="26" as="geometry" />
        </mxCell>
        <mxCell id="7p9TcKajQnI9MsIjtAsc-20" value="+ MessageID: string" style="text;strokeColor=none;fillColor=none;align=left;verticalAlign=top;spacingLeft=4;spacingRight=4;overflow=hidden;rotatable=0;points=[[0,0.5],[1,0.5]];portConstraint=eastwest;whiteSpace=wrap;html=1;swimlaneLine=1;" vertex="1" parent="7p9TcKajQnI9MsIjtAsc-18">
          <mxGeometry y="52" width="240" height="26" as="geometry" />
        </mxCell>
        <mxCell id="7p9TcKajQnI9MsIjtAsc-22" value="+ content: string (Response)" style="text;strokeColor=none;fillColor=none;align=left;verticalAlign=top;spacingLeft=4;spacingRight=4;overflow=hidden;rotatable=0;points=[[0,0.5],[1,0.5]];portConstraint=eastwest;whiteSpace=wrap;html=1;swimlaneLine=1;" vertex="1" parent="7p9TcKajQnI9MsIjtAsc-18">
          <mxGeometry y="78" width="240" height="26" as="geometry" />
        </mxCell>
        <mxCell id="7p9TcKajQnI9MsIjtAsc-23" value="+ timestamp: time" style="text;strokeColor=none;fillColor=none;align=left;verticalAlign=top;spacingLeft=4;spacingRight=4;overflow=hidden;rotatable=0;points=[[0,0.5],[1,0.5]];portConstraint=eastwest;whiteSpace=wrap;html=1;swimlaneLine=1;" vertex="1" parent="7p9TcKajQnI9MsIjtAsc-18">
          <mxGeometry y="104" width="240" height="30" as="geometry" />
        </mxCell>
        <mxCell id="7p9TcKajQnI9MsIjtAsc-44" style="edgeStyle=orthogonalEdgeStyle;rounded=0;orthogonalLoop=1;jettySize=auto;html=1;elbow=vertical;swimlaneLine=1;" edge="1" parent="7p9TcKajQnI9MsIjtAsc-18">
          <mxGeometry relative="1" as="geometry">
            <mxPoint x="140" y="170" as="targetPoint" />
            <mxPoint x="10" y="410" as="sourcePoint" />
            <Array as="points">
              <mxPoint x="10" y="270" />
              <mxPoint x="139" y="270" />
            </Array>
          </mxGeometry>
        </mxCell>
        <mxCell id="7p9TcKajQnI9MsIjtAsc-52" value="+ review:&amp;nbsp;" style="text;strokeColor=none;fillColor=none;align=left;verticalAlign=top;spacingLeft=4;spacingRight=4;overflow=hidden;rotatable=0;points=[[0,0.5],[1,0.5]];portConstraint=eastwest;whiteSpace=wrap;html=1;swimlaneLine=1;" vertex="1" parent="7p9TcKajQnI9MsIjtAsc-18">
          <mxGeometry y="134" width="240" height="30" as="geometry" />
        </mxCell>
        <mxCell id="7p9TcKajQnI9MsIjtAsc-28" value="" style="edgeStyle=orthogonalEdgeStyle;rounded=0;orthogonalLoop=1;jettySize=auto;html=1;elbow=vertical;swimlaneLine=1;" edge="1" parent="1" source="7p9TcKajQnI9MsIjtAsc-25">
          <mxGeometry relative="1" as="geometry">
            <mxPoint x="-740" y="-330" as="targetPoint" />
          </mxGeometry>
        </mxCell>
        <mxCell id="7p9TcKajQnI9MsIjtAsc-34" style="edgeStyle=orthogonalEdgeStyle;rounded=0;orthogonalLoop=1;jettySize=auto;html=1;elbow=vertical;swimlaneLine=1;" edge="1" parent="1" source="7p9TcKajQnI9MsIjtAsc-25">
          <mxGeometry relative="1" as="geometry">
            <mxPoint x="-580" y="-380.0000000000002" as="targetPoint" />
          </mxGeometry>
        </mxCell>
        <mxCell id="7p9TcKajQnI9MsIjtAsc-25" value="" style="shape=actor;whiteSpace=wrap;html=1;swimlaneLine=1;" vertex="1" parent="1">
          <mxGeometry x="-760" y="-410" width="40" height="60" as="geometry" />
        </mxCell>
        <mxCell id="7p9TcKajQnI9MsIjtAsc-26" value="User" style="text;strokeColor=none;fillColor=none;html=1;fontSize=18;fontStyle=0;verticalAlign=middle;align=center;swimlaneLine=1;" vertex="1" parent="1">
          <mxGeometry x="-790" y="-330" width="100" height="40" as="geometry" />
        </mxCell>
        <mxCell id="7p9TcKajQnI9MsIjtAsc-30" value="Requirements to Test Cases" style="text;strokeColor=#6c8ebf;fillColor=#dae8fc;html=1;fontSize=24;fontStyle=1;verticalAlign=middle;align=center;swimlaneLine=1;" vertex="1" parent="1">
          <mxGeometry x="-180" y="-1010" width="370" height="40" as="geometry" />
        </mxCell>
        <mxCell id="7p9TcKajQnI9MsIjtAsc-48" value="" style="edgeStyle=orthogonalEdgeStyle;rounded=0;orthogonalLoop=1;jettySize=auto;html=1;elbow=vertical;swimlaneLine=1;" edge="1" parent="1" source="7p9TcKajQnI9MsIjtAsc-31" target="7p9TcKajQnI9MsIjtAsc-45">
          <mxGeometry relative="1" as="geometry" />
        </mxCell>
        <mxCell id="7p9TcKajQnI9MsIjtAsc-31" value="" style="html=1;verticalLabelPosition=bottom;align=center;labelBackgroundColor=#ffffff;verticalAlign=top;strokeWidth=2;strokeColor=#0080F0;shadow=0;dashed=0;shape=mxgraph.ios7.icons.messages;swimlaneLine=1;" vertex="1" parent="1">
          <mxGeometry x="660" y="-418.5" width="114.12" height="97" as="geometry" />
        </mxCell>
        <mxCell id="7p9TcKajQnI9MsIjtAsc-35" style="edgeStyle=orthogonalEdgeStyle;rounded=0;orthogonalLoop=1;jettySize=auto;html=1;elbow=vertical;entryX=0.5;entryY=1;entryDx=0;entryDy=0;swimlaneLine=1;" edge="1" parent="1" source="7p9TcKajQnI9MsIjtAsc-33" target="uxHZfJqhnMFODpJpr4_Y-39">
          <mxGeometry relative="1" as="geometry">
            <mxPoint x="-480" y="-600" as="targetPoint" />
          </mxGeometry>
        </mxCell>
        <mxCell id="7p9TcKajQnI9MsIjtAsc-37" style="edgeStyle=orthogonalEdgeStyle;rounded=0;orthogonalLoop=1;jettySize=auto;html=1;entryX=0;entryY=0.5;entryDx=0;entryDy=0;elbow=vertical;swimlaneLine=1;" edge="1" parent="1" source="7p9TcKajQnI9MsIjtAsc-33" target="7p9TcKajQnI9MsIjtAsc-36">
          <mxGeometry relative="1" as="geometry" />
        </mxCell>
        <mxCell id="7p9TcKajQnI9MsIjtAsc-33" value="Login / &lt;br&gt;Signup" style="whiteSpace=wrap;html=1;aspect=fixed;swimlaneLine=1;" vertex="1" parent="1">
          <mxGeometry x="-570" y="-410" width="80" height="80" as="geometry" />
        </mxCell>
        <mxCell id="7p9TcKajQnI9MsIjtAsc-38" style="edgeStyle=orthogonalEdgeStyle;rounded=0;orthogonalLoop=1;jettySize=auto;html=1;elbow=vertical;entryX=0.535;entryY=1.024;entryDx=0;entryDy=0;entryPerimeter=0;swimlaneLine=1;" edge="1" parent="1" source="7p9TcKajQnI9MsIjtAsc-36" target="uxHZfJqhnMFODpJpr4_Y-55">
          <mxGeometry relative="1" as="geometry">
            <mxPoint x="-180" y="-630" as="targetPoint" />
          </mxGeometry>
        </mxCell>
        <mxCell id="7p9TcKajQnI9MsIjtAsc-40" style="edgeStyle=orthogonalEdgeStyle;rounded=0;orthogonalLoop=1;jettySize=auto;html=1;entryX=0;entryY=0.5;entryDx=0;entryDy=0;elbow=vertical;swimlaneLine=1;" edge="1" parent="1" source="7p9TcKajQnI9MsIjtAsc-36" target="7p9TcKajQnI9MsIjtAsc-39">
          <mxGeometry relative="1" as="geometry" />
        </mxCell>
        <mxCell id="7p9TcKajQnI9MsIjtAsc-36" value="Creating a new chat" style="whiteSpace=wrap;html=1;aspect=fixed;swimlaneLine=1;" vertex="1" parent="1">
          <mxGeometry x="-270" y="-410" width="80" height="80" as="geometry" />
        </mxCell>
        <mxCell id="7p9TcKajQnI9MsIjtAsc-43" style="edgeStyle=orthogonalEdgeStyle;rounded=0;orthogonalLoop=1;jettySize=auto;html=1;entryX=0;entryY=0.5;entryDx=0;entryDy=0;elbow=vertical;swimlaneLine=1;" edge="1" parent="1" source="7p9TcKajQnI9MsIjtAsc-39" target="7p9TcKajQnI9MsIjtAsc-42">
          <mxGeometry relative="1" as="geometry" />
        </mxCell>
        <mxCell id="7p9TcKajQnI9MsIjtAsc-39" value="New message&lt;br&gt;by user" style="whiteSpace=wrap;html=1;aspect=fixed;swimlaneLine=1;" vertex="1" parent="1">
          <mxGeometry x="50" y="-410" width="80" height="80" as="geometry" />
        </mxCell>
        <mxCell id="7p9TcKajQnI9MsIjtAsc-41" style="edgeStyle=orthogonalEdgeStyle;rounded=0;orthogonalLoop=1;jettySize=auto;html=1;entryX=0.525;entryY=1.038;entryDx=0;entryDy=0;entryPerimeter=0;elbow=vertical;swimlaneLine=1;" edge="1" parent="1" source="7p9TcKajQnI9MsIjtAsc-39" target="7p9TcKajQnI9MsIjtAsc-15">
          <mxGeometry relative="1" as="geometry" />
        </mxCell>
        <mxCell id="7p9TcKajQnI9MsIjtAsc-51" style="edgeStyle=orthogonalEdgeStyle;rounded=0;hachureGap=4;orthogonalLoop=1;jettySize=auto;html=1;fontFamily=Architects Daughter;fontSource=https%3A%2F%2Ffonts.googleapis.com%2Fcss%3Ffamily%3DArchitects%2BDaughter;fontSize=16;" edge="1" parent="1" source="7p9TcKajQnI9MsIjtAsc-42">
          <mxGeometry relative="1" as="geometry">
            <mxPoint x="395" y="-310" as="targetPoint" />
          </mxGeometry>
        </mxCell>
        <mxCell id="7p9TcKajQnI9MsIjtAsc-42" value="Response&lt;br&gt;by Model" style="whiteSpace=wrap;html=1;aspect=fixed;swimlaneLine=1;" vertex="1" parent="1">
          <mxGeometry x="355" y="-410" width="80" height="80" as="geometry" />
        </mxCell>
        <mxCell id="7p9TcKajQnI9MsIjtAsc-45" value="Web UI" style="text;strokeColor=none;fillColor=none;html=1;fontSize=18;fontStyle=0;verticalAlign=middle;align=center;swimlaneLine=1;" vertex="1" parent="1">
          <mxGeometry x="667.06" y="-290" width="100" height="40" as="geometry" />
        </mxCell>
        <mxCell id="7p9TcKajQnI9MsIjtAsc-46" style="edgeStyle=orthogonalEdgeStyle;rounded=0;orthogonalLoop=1;jettySize=auto;html=1;entryX=0;entryY=0.5;entryDx=0;entryDy=0;entryPerimeter=0;elbow=vertical;swimlaneLine=1;" edge="1" parent="1" source="7p9TcKajQnI9MsIjtAsc-42" target="7p9TcKajQnI9MsIjtAsc-31">
          <mxGeometry relative="1" as="geometry" />
        </mxCell>
        <mxCell id="7p9TcKajQnI9MsIjtAsc-49" value="" style="verticalLabelPosition=bottom;aspect=fixed;html=1;shape=mxgraph.salesforce.bots;fillColor=#f5f5f5;strokeColor=#666666;fontColor=#333333;swimlaneLine=1;" vertex="1" parent="1">
          <mxGeometry x="365" y="-307" width="60" height="57" as="geometry" />
        </mxCell>
        <mxCell id="7p9TcKajQnI9MsIjtAsc-53" value="chatConversation" style="swimlane;fontStyle=0;childLayout=stackLayout;horizontal=1;startSize=26;fillColor=none;horizontalStack=0;resizeParent=1;resizeParentMax=0;resizeLast=0;collapsible=1;marginBottom=0;whiteSpace=wrap;html=1;swimlaneLine=1;" vertex="1" parent="1">
          <mxGeometry x="310" y="-1126" width="240" height="182" as="geometry">
            <mxRectangle x="270" y="-360" width="100" height="30" as="alternateBounds" />
          </mxGeometry>
        </mxCell>
        <mxCell id="7p9TcKajQnI9MsIjtAsc-54" value="+&amp;nbsp;ConversationID: string" style="text;strokeColor=none;fillColor=none;align=left;verticalAlign=top;spacingLeft=4;spacingRight=4;overflow=hidden;rotatable=0;points=[[0,0.5],[1,0.5]];portConstraint=eastwest;whiteSpace=wrap;html=1;swimlaneLine=1;" vertex="1" parent="7p9TcKajQnI9MsIjtAsc-53">
          <mxGeometry y="26" width="240" height="26" as="geometry" />
        </mxCell>
        <mxCell id="7p9TcKajQnI9MsIjtAsc-55" value="+ userName: email&amp;nbsp;(Primary Key)" style="text;strokeColor=none;fillColor=none;align=left;verticalAlign=top;spacingLeft=4;spacingRight=4;overflow=hidden;rotatable=0;points=[[0,0.5],[1,0.5]];portConstraint=eastwest;whiteSpace=wrap;html=1;swimlaneLine=1;" vertex="1" parent="7p9TcKajQnI9MsIjtAsc-53">
          <mxGeometry y="52" width="240" height="26" as="geometry" />
        </mxCell>
        <mxCell id="7p9TcKajQnI9MsIjtAsc-56" value="+ chatName: string" style="text;strokeColor=none;fillColor=none;align=left;verticalAlign=top;spacingLeft=4;spacingRight=4;overflow=hidden;rotatable=0;points=[[0,0.5],[1,0.5]];portConstraint=eastwest;whiteSpace=wrap;html=1;swimlaneLine=1;" vertex="1" parent="7p9TcKajQnI9MsIjtAsc-53">
          <mxGeometry y="78" width="240" height="26" as="geometry" />
        </mxCell>
        <mxCell id="7p9TcKajQnI9MsIjtAsc-57" value="+ creationDate: date" style="text;strokeColor=none;fillColor=none;align=left;verticalAlign=top;spacingLeft=4;spacingRight=4;overflow=hidden;rotatable=0;points=[[0,0.5],[1,0.5]];portConstraint=eastwest;whiteSpace=wrap;html=1;swimlaneLine=1;" vertex="1" parent="7p9TcKajQnI9MsIjtAsc-53">
          <mxGeometry y="104" width="240" height="26" as="geometry" />
        </mxCell>
        <mxCell id="7p9TcKajQnI9MsIjtAsc-58" value="+ isDeleted: boolean (Soft Delete)" style="text;strokeColor=none;fillColor=none;align=left;verticalAlign=top;spacingLeft=4;spacingRight=4;overflow=hidden;rotatable=0;points=[[0,0.5],[1,0.5]];portConstraint=eastwest;whiteSpace=wrap;html=1;swimlaneLine=1;" vertex="1" parent="7p9TcKajQnI9MsIjtAsc-53">
          <mxGeometry y="130" width="240" height="26" as="geometry" />
        </mxCell>
        <mxCell id="7p9TcKajQnI9MsIjtAsc-59" value="+ chatList: boolean (Soft Delete)" style="text;strokeColor=none;fillColor=none;align=left;verticalAlign=top;spacingLeft=4;spacingRight=4;overflow=hidden;rotatable=0;points=[[0,0.5],[1,0.5]];portConstraint=eastwest;whiteSpace=wrap;html=1;swimlaneLine=1;" vertex="1" parent="7p9TcKajQnI9MsIjtAsc-53">
          <mxGeometry y="156" width="240" height="26" as="geometry" />
        </mxCell>
      </root>
    </mxGraphModel>
  </diagram>
</mxfile>
